<?xml version="1.0" encoding="UTF-8" standalone="no"?>
<!DOCTYPE svg PUBLIC "-//W3C//DTD SVG 1.1//EN" "http://www.w3.org/Graphics/SVG/1.1/DTD/svg11.dtd">
<svg width="100%" height="100%" viewBox="0 0 624 17" version="1.1" xmlns="http://www.w3.org/2000/svg" xmlns:xlink="http://www.w3.org/1999/xlink" xml:space="preserve" xmlns:serif="http://www.serif.com/" style="fill-rule:evenodd;clip-rule:evenodd;stroke-linejoin:round;stroke-miterlimit:1.41421;">
    <g transform="matrix(1.25925,0,0,1.25925,-3239.15,1743.72)">
        <path d="M2572.29,-1384.37L2794.45,-1384.37C2803.09,-1384.37 2811.72,-1382.62 2820.06,-1380.36C2828.4,-1382.62 2837.02,-1384.37 2845.67,-1384.37L3067.83,-1384.37L3067.83,-1383.58L2852.44,-1383.58C2855.71,-1382.78 2858.71,-1381.21 2858.61,-1378.23C2858.53,-1375.88 2856.01,-1374.75 2854.03,-1374.59C2852.02,-1374.42 2849.33,-1375.84 2849.61,-1378.22C2849.78,-1379.78 2851.07,-1381.01 2852.94,-1381.07C2854.22,-1381.11 2855.23,-1380.32 2855.6,-1379.05C2854.82,-1380.04 2854.03,-1380.65 2852.89,-1380.61C2851.7,-1380.58 2850.27,-1379.88 2850.16,-1378.14C2850.06,-1376.31 2852.64,-1375.19 2854.04,-1375.26C2856.02,-1375.36 2858.12,-1376.47 2858.16,-1378.25C2858.23,-1382.98 2848.55,-1383.25 2845.63,-1383.35C2837.2,-1383.64 2829.24,-1382.3 2821.11,-1379.97C2822.22,-1379.54 2823.44,-1379.2 2824.56,-1378.84C2828.73,-1380.4 2832.78,-1381.06 2837.66,-1381.28C2839.48,-1381.37 2845.5,-1381.98 2845.43,-1378.81C2845.37,-1376.11 2838.24,-1376.16 2836.86,-1376.17C2832.66,-1376.2 2827.88,-1376.58 2823.71,-1378.07C2822.72,-1377.66 2821.69,-1377.18 2820.6,-1376.62C2821.57,-1376.22 2822.56,-1375.84 2823.61,-1375.55C2822.37,-1374.42 2820.8,-1372.77 2820.06,-1371.6C2819.32,-1372.77 2817.74,-1374.42 2816.51,-1375.55C2817.56,-1375.84 2818.55,-1376.22 2819.52,-1376.62C2818.43,-1377.18 2817.4,-1377.66 2816.41,-1378.07C2812.24,-1376.58 2807.45,-1376.2 2803.25,-1376.17C2801.88,-1376.16 2794.74,-1376.11 2794.69,-1378.81C2794.62,-1381.98 2800.64,-1381.37 2802.46,-1381.28C2807.34,-1381.06 2811.38,-1380.4 2815.56,-1378.84C2816.67,-1379.2 2817.9,-1379.54 2819.01,-1379.97C2810.88,-1382.3 2802.92,-1383.64 2794.48,-1383.35C2791.57,-1383.25 2781.88,-1382.98 2781.96,-1378.25C2781.99,-1376.47 2784.09,-1375.36 2786.08,-1375.26C2787.47,-1375.19 2790.06,-1376.31 2789.95,-1378.14C2789.85,-1379.88 2788.42,-1380.58 2787.22,-1380.61C2786.09,-1380.65 2785.3,-1380.04 2784.51,-1379.05C2784.89,-1380.32 2785.89,-1381.11 2787.18,-1381.07C2789.05,-1381.01 2790.33,-1379.78 2790.51,-1378.22C2790.78,-1375.84 2788.1,-1374.42 2786.09,-1374.59C2784.11,-1374.75 2781.59,-1375.88 2781.51,-1378.23C2781.41,-1381.21 2784.41,-1382.78 2787.67,-1383.58L2572.29,-1383.58L2572.29,-1384.37ZM2820.06,-1379.34C2819.52,-1379.14 2818.13,-1378.68 2816.99,-1378.28C2817.99,-1377.86 2819.01,-1377.38 2820.06,-1376.85C2821.1,-1377.38 2822.12,-1377.86 2823.13,-1378.28C2821.99,-1378.68 2820.6,-1379.14 2820.06,-1379.34ZM2820.06,-1376.26C2819.31,-1375.82 2818.6,-1375.47 2817.68,-1375.17C2818.3,-1374.63 2819.53,-1373.24 2820.06,-1372.55C2820.59,-1373.24 2821.82,-1374.63 2822.44,-1375.17C2821.52,-1375.47 2820.81,-1375.82 2820.06,-1376.26ZM2825.17,-1378.64C2828.65,-1377.45 2833.33,-1376.73 2836.87,-1376.82C2837.58,-1376.83 2845.23,-1376.81 2845.16,-1378.83C2845.07,-1381.19 2838.97,-1380.85 2837.61,-1380.79C2832.94,-1380.59 2829.31,-1380.16 2825.17,-1378.64ZM2814.95,-1378.64C2810.81,-1380.16 2807.17,-1380.59 2802.51,-1380.79C2801.14,-1380.85 2795.05,-1381.19 2794.96,-1378.83C2794.88,-1376.81 2802.54,-1376.83 2803.25,-1376.82C2806.78,-1376.73 2811.47,-1377.45 2814.95,-1378.64Z" style="fill:rgba(127,129,130, 0.7);"/>
    </g>
</svg>
