<?xml version="1.0" encoding="UTF-8" standalone="no"?>
<!DOCTYPE svg PUBLIC "-//W3C//DTD SVG 1.1//EN" "http://www.w3.org/Graphics/SVG/1.1/DTD/svg11.dtd">
<svg width="100%" height="100%" viewBox="0 0 624 17" version="1.1" xmlns="http://www.w3.org/2000/svg" xmlns:xlink="http://www.w3.org/1999/xlink" xml:space="preserve" xmlns:serif="http://www.serif.com/" style="fill-rule:evenodd;clip-rule:evenodd;stroke-linejoin:round;stroke-miterlimit:1.41421;">
    <g transform="matrix(1.22427,0,0,1.22427,-9745.13,-291.151)">
        <path d="M8034.34,243.578L8204.68,243.578C8205.81,243.578 8207.15,244.341 8207.74,245.332C8208.05,244.737 8208.8,243.849 8209.33,243.516C8209.7,245.065 8210.56,245.906 8212.34,245.906C8214.22,245.906 8214.35,243.524 8213.08,243.524C8212.88,243.524 8212.65,243.61 8212.48,243.934C8213.48,244.283 8212.95,245.444 8212.29,245.444C8210.47,245.444 8211.14,242.762 8212.97,242.762C8215.18,242.762 8215.24,246.455 8212.3,246.508C8211.08,246.531 8209.68,245.905 8209.1,244.663C8208.65,245.119 8208.03,246.13 8207.7,246.754C8207.27,245.61 8206.27,244.364 8204.88,244.364L8034.34,244.364L8034.34,243.578ZM8395.2,243.578L8224.85,243.578C8223.72,243.578 8222.38,244.341 8221.8,245.332C8221.48,244.737 8220.73,243.849 8220.21,243.516C8219.84,245.065 8218.98,245.906 8217.2,245.906C8215.31,245.906 8215.18,243.524 8216.45,243.524C8216.66,243.524 8216.88,243.61 8217.06,243.934C8216.05,244.283 8216.59,245.444 8217.24,245.444C8219.07,245.444 8218.39,242.762 8216.57,242.762C8214.36,242.762 8214.29,246.455 8217.23,246.508C8218.46,246.531 8219.86,245.905 8220.44,244.663C8220.88,245.119 8221.51,246.13 8221.83,246.754C8222.26,245.61 8223.26,244.364 8224.66,244.364L8395.2,244.364L8395.2,243.578Z" style="fill:rgba(219,88,85,0.7);"/>
    </g>
</svg>
